<svg width="74" height="36" viewBox="0 0 74 36" fill="none" xmlns="http://www.w3.org/2000/svg">
<path d="M10.8242 35.2652C10.2914 35.2652 9.85547 35.0836 9.51641 34.7203C9.17734 34.3813 9.00781 33.9574 9.00781 33.4488V30.9785C7.53047 30.8816 6.21055 30.6516 5.04805 30.2883C3.90977 29.9008 2.92891 29.477 2.10547 29.0168C1.54844 28.702 1.19727 28.2781 1.05195 27.7453C0.930859 27.2125 0.967188 26.7039 1.16094 26.2195C1.35469 25.7352 1.68164 25.3961 2.1418 25.2023C2.60195 25.0086 3.14688 25.0934 3.77656 25.4566C4.45469 25.8441 5.33867 26.2195 6.42852 26.5828C7.54258 26.9219 8.87461 27.0914 10.4246 27.0914C12.241 27.0914 13.5488 26.7766 14.348 26.1469C15.1473 25.493 15.5469 24.6816 15.5469 23.7129C15.5469 22.9137 15.2684 22.2598 14.7113 21.7512C14.1543 21.2426 13.1613 20.8309 11.7324 20.516L7.88164 19.6805C3.49805 18.7359 1.30625 16.4352 1.30625 12.7781C1.30625 10.7437 1.99648 9.03633 3.37695 7.65586C4.78164 6.25117 6.65859 5.40351 9.00781 5.11289V2.53359C9.00781 2.025 9.17734 1.60117 9.51641 1.26211C9.85547 0.898826 10.2914 0.717185 10.8242 0.717185C11.3328 0.717185 11.7566 0.898826 12.0957 1.26211C12.459 1.60117 12.6406 2.025 12.6406 2.53359V5.07656C13.6094 5.17344 14.6266 5.40351 15.6922 5.7668C16.782 6.13008 17.7266 6.62656 18.5258 7.25625C18.9859 7.61953 19.2523 8.04336 19.325 8.52773C19.3977 8.98789 19.3129 9.42383 19.0707 9.83555C18.8527 10.223 18.5016 10.4895 18.0172 10.6348C17.557 10.7559 17.0121 10.6348 16.3824 10.2715C15.6801 9.85977 14.893 9.53281 14.0211 9.29062C13.1492 9.02422 12.1078 8.89101 10.8969 8.89101C9.34688 8.89101 8.12383 9.24219 7.22773 9.94453C6.35586 10.6227 5.91992 11.5187 5.91992 12.6328C5.91992 13.4562 6.18633 14.1223 6.71914 14.6309C7.25195 15.1152 8.16016 15.5027 9.44375 15.7934L13.4035 16.6652C15.7285 17.1738 17.4359 17.9852 18.5258 19.0992C19.6156 20.1891 20.1605 21.6301 20.1605 23.4223C20.1605 25.4566 19.4582 27.1277 18.0535 28.4355C16.673 29.7191 14.8688 30.5305 12.6406 30.8695V33.4488C12.6406 33.9574 12.4711 34.3813 12.132 34.7203C11.793 35.0836 11.357 35.2652 10.8242 35.2652Z" fill="#FEA700"/>
<path d="M36.8749 30.7969C35.5429 30.7969 34.8768 30.143 34.8768 28.8352C34.8768 27.5758 35.5429 26.9461 36.8749 26.9461H40.9436V10.4895L37.8557 12.3422C37.2745 12.6812 36.7417 12.766 36.2573 12.5965C35.7972 12.427 35.446 12.1242 35.2038 11.6883C34.9616 11.2523 34.889 10.7801 34.9858 10.2715C35.0827 9.73867 35.4218 9.30273 36.003 8.96367L41.0163 5.94844C41.5007 5.65781 41.985 5.41562 42.4694 5.22187C42.9538 5.0039 43.4018 4.89492 43.8136 4.89492C44.3222 4.89492 44.746 5.04023 45.085 5.33086C45.4241 5.59726 45.5936 6.04531 45.5936 6.675V26.9461H49.2991C50.6311 26.9461 51.2972 27.5758 51.2972 28.8352C51.2972 30.143 50.6311 30.7969 49.2991 30.7969H36.8749ZM63.8888 31.1602C60.8615 31.1602 58.5486 30.0219 56.9502 27.7453C55.3517 25.4445 54.5525 22.175 54.5525 17.9367C54.5525 13.65 55.3517 10.3926 56.9502 8.16445C58.5486 5.93633 60.8615 4.82226 63.8888 4.82226C66.9404 4.82226 69.2533 5.93633 70.8275 8.16445C72.4259 10.3926 73.2252 13.6379 73.2252 17.9004C73.2252 22.1629 72.4259 25.4445 70.8275 27.7453C69.2291 30.0219 66.9162 31.1602 63.8888 31.1602ZM63.8888 27.3457C65.5357 27.3457 66.7466 26.5828 67.5216 25.057C68.3209 23.5312 68.7205 21.1457 68.7205 17.9004C68.7205 14.6551 68.3209 12.3059 67.5216 10.8527C66.7466 9.37539 65.5357 8.63672 63.8888 8.63672C62.2662 8.63672 61.0552 9.37539 60.256 10.8527C59.4568 12.3059 59.0572 14.6551 59.0572 17.9004C59.0572 21.1457 59.4568 23.5312 60.256 25.057C61.0552 26.5828 62.2662 27.3457 63.8888 27.3457Z" fill="black"/>
</svg>
