<svg width="39" height="39" viewBox="0 0 39 39" fill="none" xmlns="http://www.w3.org/2000/svg">
<path d="M37.5749 34.8626L30.3698 27.6787C32.6945 24.7171 33.9559 21.0599 33.9512 17.2949C33.9512 13.9419 32.9569 10.6642 31.0941 7.87628C29.2312 5.08835 26.5835 2.91543 23.4857 1.63228C20.388 0.349142 16.9793 0.0134139 13.6907 0.667554C10.4021 1.32169 7.38132 2.93632 5.01039 5.30726C2.63945 7.6782 1.02482 10.699 0.370679 13.9875C-0.283461 17.2761 0.0522673 20.6848 1.33541 23.7826C2.61855 26.8804 4.79148 29.5281 7.5794 31.3909C10.3673 33.2538 13.645 34.2481 16.9981 34.2481C20.763 34.2527 24.4203 32.9914 27.3818 30.6667L34.5657 37.8718C34.7627 38.0704 34.9971 38.2281 35.2554 38.3357C35.5136 38.4432 35.7906 38.4986 36.0703 38.4986C36.3501 38.4986 36.6271 38.4432 36.8853 38.3357C37.1435 38.2281 37.3779 38.0704 37.5749 37.8718C37.7735 37.6748 37.9312 37.4404 38.0388 37.1822C38.1464 36.9239 38.2018 36.6469 38.2018 36.3672C38.2018 36.0874 38.1464 35.8105 38.0388 35.5522C37.9312 35.294 37.7735 35.0596 37.5749 34.8626ZM4.28321 17.2949C4.28321 14.7802 5.02892 12.3219 6.42605 10.2309C7.82317 8.14 9.80896 6.5103 12.1323 5.54795C14.4556 4.58559 17.0122 4.33379 19.4786 4.8244C21.945 5.315 24.2106 6.52598 25.9888 8.30418C27.767 10.0824 28.978 12.3479 29.4686 14.8144C29.9592 17.2808 29.7074 19.8374 28.745 22.1607C27.7827 24.484 26.153 26.4698 24.062 27.8669C21.9711 29.2641 19.5128 30.0098 16.9981 30.0098C13.6259 30.0098 10.3918 28.6702 8.0073 26.2857C5.62281 23.9012 4.28321 20.6671 4.28321 17.2949Z" fill="black"/>
</svg>
