<svg width="58" height="62" viewBox="0 0 58 62" fill="none" xmlns="http://www.w3.org/2000/svg">
<g filter="url(#filter0_d_30_27335)">
<path d="M27.6798 49.4138C28.5697 49.3933 29.4237 49.0588 30.0908 48.4693C30.7578 47.8798 31.1949 47.0734 31.3247 46.1927H23.8936C24.027 47.0974 24.4845 47.9227 25.181 48.5152C25.8775 49.1077 26.7654 49.4271 27.6798 49.4138V49.4138Z" fill="black"/>
<path d="M48.1788 40.3015C46.8164 39.087 45.6237 37.6948 44.6327 36.1621C43.5509 34.0466 42.9024 31.7363 42.7255 29.3668V22.3877C42.7198 21.54 42.6442 20.6942 42.4995 19.8589C41.3875 19.6366 40.3188 19.2359 39.3349 18.6722C39.7099 19.8799 39.9005 21.1373 39.9 22.4019V29.3809C40.0731 32.2714 40.8683 35.0905 42.231 37.6455C43.2064 39.1911 44.3637 40.614 45.6782 41.8838H9.49738C10.8118 40.614 11.9691 39.1911 12.9445 37.6455C14.3073 35.0905 15.1024 32.2714 15.2756 29.3809V22.3877C15.2681 20.7527 15.5833 19.1323 16.203 17.6193C16.8226 16.1062 17.7347 14.7303 18.8869 13.5702C20.0391 12.4102 21.4088 11.4888 22.9176 10.8588C24.4264 10.2288 26.0446 9.90263 27.6796 9.89893C30.0725 9.90085 32.4117 10.6085 34.4043 11.9333C34.1847 11.1266 34.0614 10.2967 34.037 9.46098V8.57094C32.5619 7.84529 30.9772 7.36796 29.3467 7.15818V5.3781C29.3467 4.87789 29.148 4.39817 28.7943 4.04447C28.4406 3.69077 27.9608 3.49207 27.4606 3.49207C26.9604 3.49207 26.4807 3.69077 26.127 4.04447C25.7733 4.39817 25.5746 4.87789 25.5746 5.3781V7.22882C21.9236 7.74384 18.5822 9.56233 16.1673 12.3486C13.7524 15.1348 12.4271 18.7006 12.4359 22.3877V29.3668C12.259 31.7363 11.6106 34.0466 10.5287 36.1621C9.55514 37.6912 8.38157 39.0834 7.03918 40.3015C6.88848 40.4339 6.7677 40.5969 6.68488 40.7796C6.60206 40.9623 6.55909 41.1605 6.55884 41.3611V43.2825C6.55884 43.6572 6.70768 44.0165 6.97263 44.2814C7.23757 44.5464 7.59691 44.6952 7.9716 44.6952H47.2463C47.621 44.6952 47.9804 44.5464 48.2453 44.2814C48.5103 44.0165 48.6591 43.6572 48.6591 43.2825V41.3611C48.6588 41.1605 48.6159 40.9623 48.5331 40.7796C48.4502 40.5969 48.3295 40.4339 48.1788 40.3015V40.3015Z" fill="black"/>
<path d="M44.6327 16.5247C48.5339 16.5247 51.6965 13.3621 51.6965 9.4609C51.6965 5.55967 48.5339 2.39709 44.6327 2.39709C40.7314 2.39709 37.5688 5.55967 37.5688 9.4609C37.5688 13.3621 40.7314 16.5247 44.6327 16.5247Z" fill="black"/>
</g>
<defs>
<filter id="filter0_d_30_27335" x="-3.5625" y="0.984375" width="62.4844" height="62.4844" filterUnits="userSpaceOnUse" color-interpolation-filters="sRGB">
<feFlood flood-opacity="0" result="BackgroundImageFix"/>
<feColorMatrix in="SourceAlpha" type="matrix" values="0 0 0 0 0 0 0 0 0 0 0 0 0 0 0 0 0 0 127 0" result="hardAlpha"/>
<feOffset dy="5.8125"/>
<feGaussianBlur stdDeviation="2.90625"/>
<feComposite in2="hardAlpha" operator="out"/>
<feColorMatrix type="matrix" values="0 0 0 0 0 0 0 0 0 0 0 0 0 0 0 0 0 0 0.25 0"/>
<feBlend mode="normal" in2="BackgroundImageFix" result="effect1_dropShadow_30_27335"/>
<feBlend mode="normal" in="SourceGraphic" in2="effect1_dropShadow_30_27335" result="shape"/>
</filter>
</defs>
</svg>
