<svg width="112" height="111" viewBox="0 0 112 111" fill="none" xmlns="http://www.w3.org/2000/svg">
<path d="M56.1953 0.120117C70.8643 0.120117 84.9325 5.94736 95.3051 16.3199C105.678 26.6925 111.505 40.7607 111.505 55.4297C111.505 70.0987 105.678 84.1669 95.3051 94.5395C84.9325 104.912 70.8643 110.739 56.1953 110.739C41.5263 110.739 27.4581 104.912 17.0855 94.5395C6.71298 84.1669 0.885742 70.0987 0.885742 55.4297C0.885742 40.7607 6.71298 26.6925 17.0855 16.3199C27.4581 5.94736 41.5263 0.120117 56.1953 0.120117ZM56.1953 102.838C68.7688 102.838 80.8272 97.8431 89.718 88.9523C98.6087 80.0616 103.604 68.0031 103.604 55.4297C103.604 42.8563 98.6087 30.7978 89.718 21.907C80.8272 13.0163 68.7688 8.02148 56.1953 8.02148C43.6219 8.02148 31.5634 13.0163 22.6726 21.907C13.7819 30.7978 8.78711 42.8563 8.78711 55.4297C8.78711 68.0031 13.7819 80.0616 22.6726 88.9523C31.5634 97.8431 43.6219 102.838 56.1953 102.838ZM50.2693 72.2675L75.53 55.4297L50.2693 38.5919V72.2675ZM51.5809 29.9636L82.3804 50.4992C83.1921 51.0404 83.8575 51.7736 84.3178 52.6337C84.778 53.4938 85.0189 54.4542 85.0189 55.4297C85.0189 56.4052 84.778 57.3656 84.3178 58.2257C83.8575 59.0858 83.1921 59.819 82.3804 60.3601L51.5809 80.8958C50.6885 81.4907 49.6513 81.8323 48.58 81.884C47.5087 81.9358 46.4434 81.6959 45.4978 81.1898C44.5521 80.6837 43.7616 79.9305 43.2104 79.0104C42.6592 78.0903 42.368 77.0379 42.3679 75.9653V34.8861C42.368 33.8136 42.6592 32.7612 43.2104 31.8411C43.7616 30.921 44.5521 30.1678 45.4978 29.6617C46.4434 29.1556 47.5087 28.9157 48.58 28.9674C49.6513 29.0192 50.6885 29.3608 51.5809 29.9557V29.9636Z" fill="#FEA700"/>
</svg>
