<svg width="27" height="27" viewBox="0 0 27 27" fill="none" xmlns="http://www.w3.org/2000/svg">
<g clip-path="url(#clip0_30_27358)">
<path d="M12.1784 3.15081C12.5272 2.23098 13.847 2.23098 14.1968 3.15081L16.4528 9.39997C16.5315 9.60354 16.6701 9.77846 16.8503 9.90162C17.0304 10.0248 17.2437 10.0904 17.462 10.0898H23.006C24.0305 10.0898 24.4773 11.365 23.6719 11.9894L19.7267 15.5391C19.55 15.6749 19.4208 15.8633 19.3578 16.0771C19.2947 16.2909 19.301 16.5192 19.3758 16.7292L20.8165 22.8356C21.1675 23.8164 20.0318 24.6589 19.173 24.0551L13.8143 20.6548C13.6308 20.5258 13.4119 20.4566 13.1876 20.4566C12.9633 20.4566 12.7445 20.5258 12.561 20.6548L7.20221 24.0551C6.3445 24.6589 5.20779 23.8153 5.55872 22.8356L6.99949 16.7292C7.07423 16.5192 7.08053 16.2909 7.01749 16.0771C6.95444 15.8633 6.82529 15.6749 6.64857 15.5391L2.70333 11.9894C1.89685 11.365 2.34586 10.0898 3.36814 10.0898H8.91217C9.13046 10.0906 9.34382 10.025 9.52403 9.90181C9.70423 9.77863 9.84279 9.60363 9.92137 9.39997L12.1773 3.15081H12.1784Z" stroke="#FEA700" stroke-width="2.90625" stroke-linecap="round" stroke-linejoin="round"/>
</g>
<defs>
<clipPath id="clip0_30_27358">
<rect width="26.1562" height="26.1562" fill="white" transform="translate(0.109375 0.28125)"/>
</clipPath>
</defs>
</svg>
